<?xml version="1.0" encoding="UTF-8" standalone="no"?>
<svg
   version="1.0"
   width="300.000000pt"
   height="249.000000pt"
   viewBox="0 0 300.000000 249.000000"
   preserveAspectRatio="xMidYMid meet"
   id="svg19"
   sodipodi:docname="KiwiAI.svg.svg"
   inkscape:version="1.4.2 (2aeb623e1d, 2025-05-12)"
   xmlns:inkscape="http://www.inkscape.org/namespaces/inkscape"
   xmlns:sodipodi="http://sodipodi.sourceforge.net/DTD/sodipodi-0.dtd"
   xmlns="http://www.w3.org/2000/svg"
   xmlns:svg="http://www.w3.org/2000/svg">
  <defs
     id="defs19" />
  <sodipodi:namedview
     id="namedview19"
     pagecolor="#ffffff"
     bordercolor="#999999"
     borderopacity="1"
     inkscape:showpageshadow="2"
     inkscape:pageopacity="0"
     inkscape:pagecheckerboard="0"
     inkscape:deskcolor="#d1d1d1"
     inkscape:document-units="pt"
     inkscape:zoom="2"
     inkscape:cx="-20.5"
     inkscape:cy="219.75"
     inkscape:window-width="2560"
     inkscape:window-height="1355"
     inkscape:window-x="0"
     inkscape:window-y="0"
     inkscape:window-maximized="1"
     inkscape:current-layer="svg19" />
  <metadata
     id="metadata1">
Created by potrace 1.10, written by Peter Selinger 2001-2011
</metadata>
  <g
     transform="translate(0.000000,249.000000) scale(0.100000,-0.100000)"
     fill="#9740bf"
     stroke="none"
     id="g19">
    <path
       id="path1"
       d="m 42.93457,2463.9258 c -0.0062,-0 -0.0231,-0.013 -0.0293,-0.015 h -0.01465 c -0.04618,-0 -0.08553,-0.014 -0.117187,-0.029 -0.0071,-0 -0.03773,-0.024 -0.04395,-0.029 l -0.01465,-0.015 -0.01465,-0.015 -0.01465,-0.015 v -0.015 c -0.0025,-0.015 -0.01308,-0.051 -0.01465,-0.059 -0.04406,-0.433 0.812852,-1.4499 1.31836,-1.7579 0.173459,-0.1056 0.334679,-0.2086 0.498047,-0.3076 -0.07603,0.11 -0.155445,0.2234 -0.234375,0.3369 -0.433306,0.6234 -0.571795,1.9127 -1.289063,1.919 h -0.01465 z m 3.94043,-9.8438 c -2.158124,-1.0634 -4.015052,-1.9896 -4.21875,-2.4463 -0.0027,-0.01 -0.01207,-0.021 -0.01465,-0.029 v -0.015 -0.015 -0.015 l -0.01465,-0.015 0.01465,-0.015 v -0.015 -0.015 h 0.01465 v -0.015 h 0.01465 l 0.01465,-0.015 h 0.01465 c 0.23776,-0.042 0.922084,0.203 1.245118,0.2197 l -1.640625,-2.9736 c -0.122135,-0.2532 -0.242146,-0.4956 -0.366211,-0.7471 0.653893,0.054 1.295587,0.1116 1.948242,0.1758 -0.85511,-0.1268 -1.526703,-0.2462 -2.036133,-0.3369 -0.07084,-0.1429 -0.133618,-0.2824 -0.205078,-0.4248 0.935121,0.01 2.369951,0.066 3.925781,0.1465 -0.123503,1.1272 0.524407,3.8138 1.303711,6.5478 z" />
    <path
       d="M1450 1818 c-148 -11 -260 -64 -371 -177 -70 -71 -126 -170 -148 -263 -19 -82 -15 -225 8 -298 26 -78 66 -156 103 -199 46 -54 48 -34 3 33 -138 207 -139 457 -1 650 125 176 346 265 551 223 44 -9 81 -21 83 -27 2 -6 8 -8 13 -4 5 3 9 0 9 -7 0 -7 3 -9 6 -6 11 11 153 -93 193 -142 78 -95 111 -172 135 -320 18 -110 5 -186 -48 -293 -19 -37 -30 -68 -25 -68 5 0 19 21 33 48 104 205 86 451 -45 617 -138 176 -295 249 -499 233z"
       id="path2" />
    <path
       d="M1359 1716 c-2 -2 -17 -6 -34 -9 -39 -7 -114 -41 -148 -67 -15 -12 -28 -16 -32 -10 -3 5 1 10 10 10 9 0 13 5 10 10 -3 6 1 10 9 10 9 0 16 4 16 8 0 5 11 15 25 22 14 7 23 15 21 18 -10 10 -77 -42 -134 -103 -70 -75 -115 -162 -137 -264 -20 -96 -18 -123 4 -41 33 126 91 219 185 298 50 42 162 102 190 102 8 0 18 5 21 10 6 10 2 14 -6 6z m-219 -100 c0 -3 -4 -8 -10 -11 -5 -3 -10 -1 -10 4 0 6 5 11 10 11 6 0 10 -2 10 -4z m-30 -29 c0 -2 -10 -12 -22 -23 l-23 -19 19 23 c18 21 26 27 26 19z"
       id="path3" />
    <path
       d="M1515 1709 c88 -11 229 -63 255 -94 7 -8 17 -15 23 -15 16 0 91 -80 135 -145 24 -36 52 -95 67 -145 l26 -85 -6 60 c-13 142 -137 307 -286 378 -84 41 -155 58 -233 56 -49 -1 -49 -2 19 -10z"
       id="path4" />
    <path
       d="M1383 1645 c-143 -31 -272 -139 -340 -282 -34 -70 -38 -88 -41 -176 -5 -115 13 -200 59 -272 37 -58 58 -59 26 0 -47 83 -62 143 -61 245 1 147 55 268 162 359 131 113 325 142 497 75 69 -26 194 -131 195 -161 0 -7 4 -13 10 -13 13 0 62 -98 55 -110 -3 -5 -1 -11 5 -15 5 -3 10 -17 10 -30 0 -13 5 -27 10 -30 32 -20 -19 130 -70 205 -72 105 -174 175 -302 205 -76 18 -133 18 -215 0z"
       id="path5" />
    <path
       d="M1275 1565 c-16 -8 -37 -20 -46 -27 -22 -18 -69 -94 -69 -112 0 -8 -9 -17 -20 -21 -10 -3 -34 -24 -51 -47 -26 -31 -30 -44 -22 -57 19 -29 100 -11 151 33 17 15 25 17 34 8 8 -8 8 -15 0 -24 -11 -14 -10 -59 3 -93 35 -96 51 -129 83 -165 45 -53 131 -122 143 -114 17 10 9 -16 -11 -36 -37 -37 -14 -94 28 -71 11 6 58 11 106 12 58 1 89 6 97 15 9 11 -7 13 -95 10 -66 -2 -111 -8 -121 -16 -28 -23 -17 19 11 45 21 20 37 25 73 24 l46 -1 -40 -9 c-22 -5 -44 -15 -50 -21 -7 -8 -4 -9 10 -4 11 4 46 12 77 16 32 5 61 11 67 14 5 3 11 -3 14 -14 7 -27 58 -55 129 -70 51 -11 61 -11 69 1 18 27 4 54 -46 86 -27 18 -48 33 -45 34 3 0 21 2 40 5 19 2 40 6 47 9 20 7 33 78 34 176 0 82 -3 98 -30 153 -42 87 -135 167 -211 183 -37 8 -120 11 -150 4 -31 -6 -38 -3 -80 41 -43 45 -50 48 -96 48 -27 -1 -62 -7 -79 -15z m132 -25 c36 -22 48 -40 57 -92 l7 -37 -28 14 c-15 8 -44 15 -63 16 -19 1 -48 5 -65 9 l-30 7 35 16 c19 9 28 16 19 17 -18 0 -128 -55 -144 -72 -7 -8 -4 -9 10 -4 49 18 134 18 195 0 l61 -18 -45 -23 c-67 -34 -112 -32 -180 6 -31 18 -56 36 -56 41 0 4 15 29 33 56 54 79 129 104 194 64z m284 -85 c92 -33 160 -101 189 -190 14 -42 15 -165 2 -225 -7 -31 -12 -36 -47 -41 -22 -4 -74 -14 -115 -23 -103 -23 -203 -19 -260 9 -96 48 -181 178 -184 280 l-1 50 56 0 c46 0 66 6 108 33 29 17 58 32 66 32 18 0 75 -49 75 -65 0 -9 -13 -11 -47 -9 l-48 4 51 -13 c100 -26 140 -64 184 -176 32 -83 26 -90 -78 -84 -116 7 -170 31 -219 94 -20 27 -39 49 -40 49 -9 0 31 -64 59 -95 54 -63 98 -79 226 -83 129 -5 123 -10 97 91 -20 76 -72 157 -118 181 -31 17 -54 52 -42 64 8 8 99 -56 136 -95 20 -21 43 -56 52 -78 27 -71 59 -137 62 -133 7 7 -24 128 -40 159 -22 42 -42 66 -110 133 l-60 59 55 -7 c37 -5 70 -17 100 -38 42 -29 43 -30 21 -5 -35 39 -84 58 -148 58 -32 0 -84 5 -115 11 -51 9 -58 14 -58 33 0 13 6 26 13 28 27 11 137 6 178 -8z m-516 -75 c3 -5 3 -10 -2 -10 -4 -1 -21 -12 -38 -27 -31 -26 -26 -24 41 17 25 16 68 5 44 -11 -8 -5 -35 -15 -60 -23 -25 -8 -53 -17 -62 -21 -28 -11 -21 7 16 48 34 38 50 45 61 27z m425 -20 c0 -5 -7 -7 -15 -4 -8 4 -15 8 -15 10 0 2 7 4 15 4 8 0 15 -4 15 -10z m215 -448 c-7 -7 -55 27 -55 39 0 5 13 0 30 -12 16 -13 28 -25 25 -27z m-65 20 c0 -14 50 -33 69 -27 10 3 27 -4 39 -15 22 -21 29 -40 14 -40 -19 0 -119 33 -139 46 -28 18 -30 44 -3 44 11 0 20 -4 20 -8z"
       id="path6" />
    <path
       d="M1246 1494 c-46 -44 -40 -56 11 -22 21 14 45 28 53 31 11 4 9 6 -5 6 -17 1 -17 3 -5 11 13 8 13 10 -1 10 -9 0 -33 -16 -53 -36z"
       id="path7" />
    <path
       d="M1375 1480 c-3 -5 -1 -10 4 -10 6 0 11 5 11 10 0 6 -2 10 -4 10 -3 0 -8 -4 -11 -10z"
       id="path8" />
    <path
       d="M1238 1398 c9 -9 15 -9 24 0 9 9 7 12 -12 12 -19 0 -21 -3 -12 -12z"
       id="path9" />
    <path
       d="M1515 1440 c-7 -11 3 -16 60 -25 22 -4 36 -3 32 2 -9 8 -12 9 -49 13 -22 2 -22 2 2 10 24 8 24 8 -7 9 -17 1 -35 -4 -38 -9z"
       id="path10" />
    <path
       d="M1475 1351 c-6 -6 -23 -17 -40 -26 l-30 -17 40 6 c22 3 55 6 74 6 33 0 34 0 16 20 -19 21 -45 26 -60 11z m45 -11 c12 -8 11 -10 -7 -10 -13 0 -23 5 -23 10 0 13 11 13 30 0z"
       id="path11" />
    <path
       d="M1290 1271 c1 -42 39 -143 58 -149 6 -2 12 2 12 9 0 7 -3 9 -7 6 -9 -9 -34 58 -40 107 l-5 39 38 -6 c22 -4 46 -7 54 -7 10 0 17 -10 18 -27 1 -15 9 -34 18 -43 15 -14 16 -13 9 5 -21 57 -20 62 10 35 23 -20 27 -21 21 -6 -5 14 -3 17 9 12 43 -17 49 -17 25 3 -23 19 -46 25 -177 50 l-43 8 0 -36z"
       id="path12" />
    <path
       d="M1520 1274 c19 -9 48 -25 64 -37 16 -11 27 -16 23 -10 -4 6 -2 13 5 15 16 6 -53 37 -94 43 l-33 5 35 -16z"
       id="path13" />
    <path
       d="M1347 1210 c3 -19 13 -44 20 -55 14 -19 15 -19 8 5 -4 14 -13 39 -21 55 l-13 30 6 -35z"
       id="path14" />
    <path
       d="M1380 1210 c31 -43 43 -47 19 -6 -12 20 -25 36 -31 36 -5 0 0 -13 12 -30z"
       id="path15" />
    <path
       d="M1582 1196 c17 -25 29 -48 26 -51 -7 -8 -86 23 -120 47 -16 11 -28 15 -28 11 0 -18 56 -62 110 -88 l55 -25 -70 5 c-53 4 -66 3 -52 -5 9 -6 47 -13 83 -15 37 -2 82 -9 101 -16 19 -6 36 -9 39 -7 5 5 -45 74 -51 71 -14 -8 -25 2 -53 46 -16 27 -40 54 -51 61 -18 9 -16 3 11 -34z m48 -76 c0 -5 -5 -10 -11 -10 -5 0 -7 5 -4 10 3 6 8 10 11 10 2 0 4 -4 4 -10z"
       id="path16" />
    <path
       d="M1430 1161 c0 -6 4 -13 10 -16 6 -3 7 1 4 9 -7 18 -14 21 -14 7z"
       id="path17" />
    <path
       d="M1965 1121 c0 -59 -5 -103 -12 -112 -6 -8 -13 -23 -15 -34 -1 -11 -6 -22 -9 -25 -4 -3 -10 -16 -13 -30 -13 -43 30 30 50 87 18 51 30 208 15 198 -5 -3 -11 -1 -13 5 -1 5 -3 -34 -3 -89z"
       id="path18" />
  </g>
</svg>
